<?xml version="1.0" standalone="no"?>
<!DOCTYPE svg PUBLIC "-//W3C//DTD SVG 20010904//EN"
 "http://www.w3.org/TR/2001/REC-SVG-20010904/DTD/svg10.dtd">
<svg version="1.0" xmlns="http://www.w3.org/2000/svg"
 width="300.000000pt" height="300.000000pt" viewBox="0 0 300.000000 300.000000"
 preserveAspectRatio="xMidYMid meet">
<metadata>
Created by potrace 1.10, written by Peter Selinger 2001-2011
</metadata>
<g transform="translate(0.000000,300.000000) scale(0.100000,-0.100000)"
fill="#000000" stroke="none">
<path d="M1475 2777 c-53 -18 -82 -34 -129 -71 -85 -68 -129 -112 -154 -155
-26 -45 -27 -51 -30 -238 l-4 -191 -181 -4 c-172 -3 -185 -4 -238 -29 -200
-94 -249 -359 -94 -514 21 -21 63 -49 94 -64 53 -25 65 -26 236 -29 l180 -2 1
-163 c0 -89 4 -178 8 -197 20 -83 98 -173 185 -213 65 -30 187 -30 252 0 67
30 124 86 159 155 l30 61 0 178 0 177 178 4 c203 5 244 16 317 80 25 22 57 61
72 86 15 26 33 51 40 55 58 36 79 221 35 307 -32 61 -87 116 -147 148 -49 26
-54 27 -237 27 l-186 0 -4 190 c-3 183 -4 192 -30 240 -33 64 -90 118 -150
145 -60 26 -151 34 -203 17z m201 -46 c58 -28 111 -87 134 -149 17 -44 20 -78
20 -200 0 -81 5 -163 10 -184 l10 -36 193 -4 c177 -3 195 -5 236 -26 60 -32
118 -98 137 -156 19 -57 15 -171 -9 -225 -14 -34 -14 -33 -15 45 0 135 -58
231 -171 287 l-65 32 -182 3 -182 3 -4 187 c-3 172 -5 190 -26 230 -68 127
-187 193 -324 178 -72 -7 -71 -3 3 24 68 24 175 20 235 -9z m-54 -66 c55 -31
99 -80 129 -144 18 -39 22 -68 25 -224 3 -99 7 -183 9 -187 3 -4 81 -8 173 -8
200 1 246 -10 320 -77 57 -52 87 -114 97 -201 6 -51 4 -69 -14 -110 -12 -26
-25 -51 -29 -54 -5 -3 -21 -22 -36 -42 -18 -24 -53 -50 -93 -70 -65 -32 -67
-32 -217 -32 -129 -1 -158 -4 -192 -20 l-39 -19 2 -166 c3 -164 2 -167 -26
-226 -33 -71 -66 -106 -129 -137 -102 -49 -231 -32 -316 44 -79 69 -90 105
-96 308 -3 107 -10 183 -17 195 -11 19 -25 20 -200 25 -169 5 -192 8 -230 28
-171 90 -207 312 -73 450 66 68 94 76 310 83 107 3 196 7 197 8 2 0 3 11 4 24
0 12 2 92 5 177 3 102 10 172 21 205 19 61 68 128 108 149 17 9 46 25 65 37
51 30 175 22 242 -16z"/>
<path d="M1417 2578 c-25 -7 -49 -24 -71 -52 -60 -74 -61 -76 -62 -269 -1
-170 0 -179 21 -195 32 -26 63 -73 70 -109 6 -30 5 -32 -21 -30 -20 1 -31 -4
-39 -20 -11 -22 -12 -22 -23 15 -7 22 -23 51 -36 65 l-25 27 -189 0 c-182 0
-190 -1 -239 -25 -128 -64 -162 -219 -69 -319 62 -66 79 -71 303 -74 169 -3
204 -6 215 -19 10 -12 12 -55 10 -172 -3 -179 7 -244 44 -300 31 -48 110 -91
166 -91 76 0 164 58 193 126 8 20 14 90 16 195 4 155 3 166 -18 194 -12 17
-33 37 -48 45 -34 18 -85 120 -85 169 l0 36 20 -25 c11 -14 20 -30 20 -36 0
-16 30 -40 30 -25 0 17 -38 91 -67 129 -20 27 -27 31 -39 21 -12 -10 -11 -17
6 -46 25 -42 25 -46 1 -38 -11 3 -29 0 -40 -7 -17 -10 -24 -9 -44 10 -25 24
-70 100 -82 140 -10 35 10 26 23 -11 19 -52 70 -127 87 -127 22 0 19 21 -11
74 -20 35 -24 50 -15 59 8 8 15 6 25 -9 13 -17 13 -20 -2 -25 -14 -5 -14 -7 5
-13 12 -4 30 -2 42 6 17 10 24 9 44 -11 14 -12 38 -51 53 -86 29 -63 47 -84
59 -64 4 5 1 8 -7 7 -9 -2 -12 6 -10 25 2 15 0 27 -5 27 -4 0 -14 9 -20 19
-10 16 -9 18 8 14 21 -6 40 -40 32 -59 -2 -6 3 -14 11 -17 9 -4 16 -12 16 -18
0 -7 11 -27 26 -46 l25 -33 184 0 c203 0 242 9 303 68 42 41 54 67 54 118 0
87 -67 178 -150 202 -20 6 -114 12 -209 12 -186 2 -209 5 -217 26 -3 8 -6 96
-7 196 -1 101 -6 198 -11 216 -12 46 -84 115 -134 130 -47 14 -64 14 -117 0z
m154 -53 c21 -13 46 -43 58 -67 19 -41 21 -61 21 -239 0 -157 3 -199 15 -216
14 -20 24 -21 227 -25 238 -4 254 -7 305 -75 24 -31 28 -46 28 -102 0 -58 -4
-70 -30 -104 -51 -64 -69 -68 -287 -65 l-193 3 -14 30 c-8 17 -18 50 -23 74
-13 70 -52 102 -198 163 -59 24 -66 30 -72 63 -10 48 -33 80 -74 106 l-34 21
0 164 c0 142 3 170 19 202 49 95 164 126 252 67z m-337 -564 c10 -11 24 -48
32 -84 21 -90 43 -109 198 -177 52 -23 59 -29 62 -58 5 -46 28 -76 79 -103
l45 -24 0 -164 c0 -144 -2 -170 -20 -206 -36 -75 -117 -115 -192 -95 -58 16
-95 44 -118 90 -18 35 -20 60 -20 237 -1 206 -3 218 -45 241 -13 6 -96 10
-217 10 -216 1 -233 5 -281 62 -66 78 -50 190 37 254 30 23 104 31 307 34 103
2 118 0 133 -17z"/>
<path d="M1345 2473 c-10 -41 -6 -373 5 -392 6 -10 10 56 10 186 0 111 3 208
6 217 3 9 2 16 -4 16 -5 0 -13 -12 -17 -27z"/>
<path d="M1710 1684 c0 -18 429 -19 453 -2 14 11 -23 13 -218 13 -170 0 -235
-3 -235 -11z"/>
<path d="M430 639 c0 -37 4 -58 10 -54 6 3 10 16 11 28 l0 22 16 -22 c8 -13
22 -23 31 -23 12 0 12 4 -4 21 -14 16 -15 23 -6 26 15 6 16 35 0 51 -7 7 -22
12 -35 12 -21 0 -23 -4 -23 -61z"/>
<path d="M533 693 c-22 -8 -14 -43 12 -55 14 -6 25 -17 25 -25 0 -16 -12 -17
-28 -1 -13 13 -27 5 -17 -11 9 -16 51 -13 65 4 15 17 6 33 -26 45 -32 13 -32
34 1 26 27 -7 35 8 9 18 -18 7 -23 7 -41 -1z"/>
<path d="M610 658 c0 -56 10 -70 46 -66 27 3 29 6 32 56 2 36 0 52 -7 47 -6
-3 -11 -24 -11 -46 0 -33 -3 -40 -17 -37 -13 2 -18 14 -19 43 0 21 -6 41 -12
43 -8 2 -12 -11 -12 -40z"/>
<path d="M710 645 c0 -54 1 -55 28 -55 31 0 62 27 62 53 0 25 -36 57 -65 57
-24 0 -25 -3 -25 -55z m55 0 c0 -20 -6 -31 -17 -33 -15 -3 -18 4 -18 33 0 29
3 36 18 33 11 -2 17 -13 17 -33z"/>
<path d="M867 682 c-20 -22 -22 -63 -5 -80 20 -20 76 -15 88 7 16 31 12 59
-12 75 -29 21 -51 20 -71 -2z m63 -21 c15 -30 2 -53 -29 -49 -29 3 -40 31 -21
53 17 21 37 19 50 -4z"/>
<path d="M960 690 c0 -5 8 -10 19 -10 16 0 17 -6 13 -51 -4 -41 -2 -51 9 -47
9 3 14 21 15 49 0 33 5 45 17 47 10 2 15 8 12 13 -8 12 -85 12 -85 -1z"/>
<path d="M1067 682 c-20 -22 -22 -63 -5 -80 20 -20 76 -15 88 7 15 29 12 56
-8 74 -24 22 -55 21 -75 -1z m63 -21 c15 -30 2 -53 -29 -49 -29 3 -40 31 -21
53 17 21 37 19 50 -4z"/>
<path d="M1213 688 c2 -7 9 -12 15 -11 8 2 9 -5 2 -22 -5 -14 -6 -25 -3 -25 4
0 2 -5 -5 -12 -18 -18 -14 -28 11 -28 20 0 22 5 22 55 0 51 -2 55 -23 55 -15
0 -22 -5 -19 -12z"/>
<path d="M1287 693 c-15 -15 -5 -44 18 -55 14 -6 25 -17 25 -25 0 -10 -5 -11
-19 -3 -30 16 -46 13 -31 -5 17 -20 66 -19 74 1 7 19 -10 44 -30 44 -14 0 -29
18 -21 26 3 3 15 1 26 -6 17 -8 21 -8 21 4 0 21 -47 35 -63 19z"/>
<path d="M1370 639 c0 -37 4 -58 10 -54 6 3 10 15 10 25 0 29 16 32 28 5 13
-29 52 -34 72 -10 11 14 15 14 37 -1 14 -8 27 -14 29 -11 7 7 -32 101 -44 105
-5 1 -18 -20 -27 -47 -9 -28 -20 -51 -23 -51 -4 0 -15 12 -26 26 -18 25 -18
26 5 50 18 19 19 24 7 24 -9 0 -26 -12 -37 -27 l-20 -28 -1 28 c0 15 -4 27
-10 27 -6 0 -10 -27 -10 -61z"/>
<path d="M1570 645 c0 -30 5 -55 10 -55 6 0 10 14 10 30 0 33 15 40 25 11 3
-10 14 -26 25 -36 20 -18 20 -17 20 44 0 39 -4 60 -10 56 -5 -3 -10 -21 -10
-38 l-1 -32 -22 37 c-32 55 -47 49 -47 -17z"/>
<path d="M1680 645 c0 -54 1 -55 28 -55 31 0 62 27 62 53 0 25 -36 57 -65 57
-24 0 -25 -3 -25 -55z m54 19 c12 -12 13 -20 6 -35 -18 -32 -40 -23 -40 16 0
38 10 44 34 19z"/>
<path d="M1803 683 c-3 -10 -12 -33 -20 -52 -7 -19 -11 -37 -7 -40 8 -9 34 30
34 51 0 10 5 18 10 18 14 0 13 -23 -2 -38 -9 -9 -8 -12 4 -12 9 0 19 -7 22
-16 3 -8 10 -13 15 -10 10 7 -28 116 -41 116 -5 0 -11 -8 -15 -17z"/>
<path d="M1880 646 c0 -31 5 -56 10 -56 6 0 10 10 10 23 0 21 1 20 24 -8 13
-16 28 -27 32 -23 4 5 -1 17 -11 29 -15 16 -16 22 -6 28 7 5 11 19 9 32 -2 19
-10 25 -35 27 l-33 3 0 -55z"/>
<path d="M2010 645 c0 -54 1 -55 28 -55 31 0 62 27 62 53 0 25 -36 57 -65 57
-24 0 -25 -3 -25 -55z m60 14 c9 -15 8 -24 -1 -35 -21 -26 -39 -16 -39 21 0
40 22 48 40 14z"/>
<path d="M2110 684 c0 -8 4 -13 8 -10 11 7 2 -56 -10 -71 -8 -10 -3 -13 21
-13 31 0 41 13 20 26 -11 6 -9 32 6 67 6 14 2 17 -19 17 -17 0 -26 -5 -26 -16z"/>
<path d="M2217 693 c-10 -10 -8 -101 2 -107 10 -7 21 17 21 47 0 19 3 18 21
-10 12 -18 24 -33 29 -33 8 0 22 101 14 109 -8 9 -24 -22 -24 -49 0 -23 -2
-22 -22 13 -22 37 -29 43 -41 30z"/>
<path d="M2337 648 c-17 -52 -14 -78 5 -45 9 17 11 17 35 2 13 -9 27 -14 30
-11 9 8 -30 106 -42 106 -6 0 -19 -23 -28 -52z"/>
<path d="M2400 690 c0 -5 9 -10 20 -10 18 0 19 -5 13 -45 -5 -38 -3 -45 11
-45 12 0 16 10 16 45 0 33 4 45 15 45 8 0 15 5 15 10 0 6 -20 10 -45 10 -25 0
-45 -4 -45 -10z"/>
<path d="M2496 648 c-23 -52 -18 -78 9 -42 13 18 14 18 37 -4 24 -21 47 -20
29 2 -5 6 -14 28 -20 48 -7 21 -17 40 -22 44 -5 3 -20 -18 -33 -48z"/>
</g>
</svg>
